<svg width="255" height="62" viewBox="0 0 255 62" fill="none" xmlns="http://www.w3.org/2000/svg">
<path d="M247.066 0H7.91504C3.54368 0 0 3.53076 0 7.88616V53.1743C0 57.5297 3.54368 61.0604 7.91504 61.0604H247.066C251.437 61.0604 254.981 57.5297 254.981 53.1743V7.88616C254.981 3.53076 251.437 0 247.066 0Z" fill="black"/>
<path d="M15.3816 55.7502V8.52734H34.3399V17.9719H24.8608V46.3057H34.3399V55.7502H15.3816ZM34.3399 46.3057V17.9719H43.8191V46.3057H34.3399Z" fill="white" stroke="white" stroke-width="3" stroke-miterlimit="10"/>
<path d="M62.7774 17.9778V27.4224H72.2565V36.8669H62.7774V46.3115H81.7357V55.7561H53.2982V8.5332H81.7357V17.9778H62.7774Z" fill="white" stroke="white" stroke-width="3" stroke-miterlimit="10"/>
<path d="M91.2148 46.3057V17.9719H100.724V46.3057H91.2148ZM100.724 17.9719V8.52734H119.682V17.9719H100.724ZM100.724 55.7502V46.3057H110.167V55.7502H100.724ZM110.167 46.3057V27.4165H119.646V46.3057H110.167Z" fill="white" stroke="white" stroke-width="3" stroke-miterlimit="10"/>
<path d="M129.131 55.7502V8.52734H157.569V17.9719H138.611V27.4165H148.09V36.8611H138.611V46.3057H157.569V55.7502H129.131Z" fill="white" stroke="white" stroke-width="3" stroke-miterlimit="10"/>
<path d="M167.048 55.7502V8.52734H176.527V17.9719H186.006V27.4165H176.527V55.7502H167.048ZM195.48 55.7502V36.8611H186.006V27.4165H195.48V8.52734H204.959V55.7502H195.48Z" fill="white" stroke="white" stroke-width="3" stroke-miterlimit="10"/>
<path d="M214.438 27.4165V17.9719H223.917V27.4165H214.438ZM214.438 55.7502V46.3057H233.396V55.7502H214.438ZM223.917 17.9719V8.52734H242.875V17.9719H223.917ZM223.917 36.8611V27.4165H233.396V36.8611H223.917ZM233.396 46.3057V36.8611H242.875V46.3057H233.396Z" fill="white" stroke="white" stroke-width="3" stroke-miterlimit="10"/>
</svg>
