<svg width="17" height="17" viewBox="0 0 17 17" fill="none" xmlns="http://www.w3.org/2000/svg">
<path d="M15.7354 11.5967H16.5004V12.3617H15.7354V11.5967Z" fill="#1E1E1E"/>
<path d="M15.735 7.79167H12.69V4.74167H13.45V3.98167H12.69V3.21667H4.31V3.98167H3.545V4.74167H2.785V5.50167H2.025V6.26667H1.26V7.02667H0.5V9.31167H1.26V8.55167H5.07V10.0767H5.83V11.5967H6.595V13.1217H7.355V14.6467H8.12V8.55167H11.165V10.0767H10.405V11.5967H9.64V13.1217H8.88V14.6467H8.12V15.4067H7.355V16.1717H8.12V16.9317H8.88V16.1717H9.64V15.4067H10.405V14.6467H11.165V13.8867H11.93V13.1217H12.69V12.3617H13.45V11.5967H14.215V10.8367H14.975V10.0767H15.735V9.31167H16.5V7.02667H15.735V7.79167ZM11.165 7.79167H5.83V7.02667H5.07V3.98167H8.12V4.74167H8.88V5.50167H9.64V6.26667H10.405V7.02667H11.165V7.79167Z" fill="#1E1E1E"/>
<path d="M14.9746 13.8866H15.7346V14.6466H14.9746V13.8866Z" fill="#1E1E1E"/>
<path d="M14.9746 6.2666H15.7346V7.0266H14.9746V6.2666Z" fill="#1E1E1E"/>
<path d="M14.2148 14.6466H14.9748V15.4066H14.2148V14.6466Z" fill="#1E1E1E"/>
<path d="M14.2148 13.1216H14.9748V13.8866H14.2148V13.1216Z" fill="#1E1E1E"/>
<path d="M14.2148 5.50159H14.9748V6.26659H14.2148V5.50159Z" fill="#1E1E1E"/>
<path d="M14.2152 2.45665H13.4502V3.21665H14.2152V3.98165H14.9752V3.21665H15.7352V2.45665H14.9752V1.69165H14.2152V2.45665Z" fill="#1E1E1E"/>
<path d="M13.4502 13.8866H14.2152V14.6466H13.4502V13.8866Z" fill="#1E1E1E"/>
<path d="M13.4502 4.7417H14.2152V5.5017H13.4502V4.7417Z" fill="#1E1E1E"/>
<path d="M11.9297 16.1716H12.6897V16.9316H11.9297V16.1716Z" fill="#1E1E1E"/>
<path d="M11.9297 0.931641H12.6897V1.69164H11.9297V0.931641Z" fill="#1E1E1E"/>
<path d="M7.35547 4.7417H8.12047V5.5017H7.35547V4.7417Z" fill="#1E1E1E"/>
<path d="M7.35547 1.69165H8.12047V2.45665H7.35547V1.69165Z" fill="#1E1E1E"/>
<path d="M6.59473 14.6466H7.35473V15.4066H6.59473V14.6466Z" fill="#1E1E1E"/>
<path d="M6.59473 5.50159H7.35473V6.26659H6.59473V5.50159Z" fill="#1E1E1E"/>
<path d="M5.83008 13.8866H6.59508V14.6466H5.83008V13.8866Z" fill="#1E1E1E"/>
<path d="M5.83008 6.2666H6.59508V7.0266H5.83008V6.2666Z" fill="#1E1E1E"/>
<path d="M5.07031 15.4066H5.83031V16.1716H5.07031V15.4066Z" fill="#1E1E1E"/>
<path d="M5.07031 13.1216H5.83031V13.8866H5.07031V13.1216Z" fill="#1E1E1E"/>
<path d="M4.30957 12.3617H5.06957V13.1217H4.30957V12.3617Z" fill="#1E1E1E"/>
<path d="M3.54492 11.5967H4.30992V12.3617H3.54492V11.5967Z" fill="#1E1E1E"/>
<path d="M2.78516 10.8367H3.54516V11.5967H2.78516V10.8367Z" fill="#1E1E1E"/>
<path d="M2.78516 2.45667H3.54516V3.21667H2.78516V2.45667Z" fill="#1E1E1E"/>
<path d="M2.02477 13.1216V13.8866H1.25977V14.6466H2.02477V15.4066H2.78477V14.6466H3.54477V13.8866H2.78477V13.1216H2.02477Z" fill="#1E1E1E"/>
<path d="M2.02539 10.0767H2.78539V10.8367H2.02539V10.0767Z" fill="#1E1E1E"/>
<path d="M2.02539 3.21667H2.78539V3.98167H2.02539V3.21667Z" fill="#1E1E1E"/>
<path d="M2.02539 1.69165H2.78539V2.45665H2.02539V1.69165Z" fill="#1E1E1E"/>
<path d="M1.25977 9.31165H2.02477V10.0766H1.25977V9.31165Z" fill="#1E1E1E"/>
<path d="M1.25977 2.45667H2.02477V3.21667H1.25977V2.45667Z" fill="#1E1E1E"/>
<path d="M0.5 11.5967H1.26V12.3617H0.5V11.5967Z" fill="#1E1E1E"/>
</svg>
