<svg width="55" height="56" viewBox="0 0 55 56" fill="none" xmlns="http://www.w3.org/2000/svg">
<path d="M34.0482 46.7705V49.383H39.2732V52.0127H15.7092V49.383H20.9514V46.7705H15.7092V41.5283H13.0967V52.0127H7.85449V54.6252H47.1451V52.0127H41.9029V41.5283H39.2732V46.7705H34.0482Z" fill="white"/>
<path d="M36.6611 36.2861H39.2736V41.5283H36.6611V36.2861Z" fill="white"/>
<path d="M36.6611 15.3347H39.2736V20.5769H36.6611V15.3347Z" fill="white"/>
<path d="M34.0479 33.6738H36.6604V36.2863H34.0479V33.6738Z" fill="white"/>
<path d="M31.4189 31.0613H34.0486V33.6738H31.4189V31.0613Z" fill="white"/>
<path d="M28.8057 44.1409H34.0479V46.7706H28.8057V44.1409Z" fill="white"/>
<path d="M34.0479 25.8191V23.1894H36.6604V20.5769H18.3213V23.1894H20.951V25.8191H23.5635V31.0613H26.1932V44.141H28.8057V31.0613H31.4182V25.8191H34.0479Z" fill="white"/>
<path d="M20.9512 44.1409H26.1934V46.7706H20.9512V44.1409Z" fill="white"/>
<path d="M20.9512 31.0613H23.5637V33.6738H20.9512V31.0613Z" fill="white"/>
<path d="M18.3213 33.6738H20.951V36.2863H18.3213V33.6738Z" fill="white"/>
<path d="M15.709 36.2861H18.3215V41.5283H15.709V36.2861Z" fill="white"/>
<path d="M15.709 15.3347H18.3215V20.5769H15.709V15.3347Z" fill="white"/>
<path d="M15.7092 4.86748H39.2732V15.3347H41.9029V4.86748H47.1451V2.23779H7.85449V4.86748H13.0967V15.3347H15.7092V4.86748Z" fill="white"/>
</svg>
