<svg id="visual" viewBox="0 0 450 900" width="450" height="900" xmlns="http://www.w3.org/2000/svg" xmlns:xlink="http://www.w3.org/1999/xlink" version="1.1"><rect x="0" y="0" width="450" height="900" fill="#4E54C1"></rect><path d="M0 3L20 18L39 100L59 122L78 48L98 19L117 103L137 29L157 137L176 74L196 11L215 65L235 31L254 131L274 102L293 37L313 56L333 12L352 9L372 27L391 112L411 92L430 74L450 25L450 901L430 901L411 901L391 901L372 901L352 901L333 901L313 901L293 901L274 901L254 901L235 901L215 901L196 901L176 901L157 901L137 901L117 901L98 901L78 901L59 901L39 901L20 901L0 901Z" fill="#585dc4"></path><path d="M0 111L20 121L39 189L59 129L78 84L98 147L117 141L137 104L157 203L176 165L196 132L215 124L235 86L254 166L274 103L293 163L313 76L333 128L352 106L372 152L391 132L411 88L430 134L450 149L450 901L430 901L411 901L391 901L372 901L352 901L333 901L313 901L293 901L274 901L254 901L235 901L215 901L196 901L176 901L157 901L137 901L117 901L98 901L78 901L59 901L39 901L20 901L0 901Z" fill="#6266c9"></path><path d="M0 158L20 229L39 183L59 223L78 182L98 258L117 261L137 198L157 243L176 190L196 251L215 257L235 246L254 196L274 225L293 189L313 141L333 269L352 248L372 234L391 268L411 138L430 269L450 172L450 901L430 901L411 901L391 901L372 901L352 901L333 901L313 901L293 901L274 901L254 901L235 901L215 901L196 901L176 901L157 901L137 901L117 901L98 901L78 901L59 901L39 901L20 901L0 901Z" fill="#6b6fcd"></path><path d="M0 328L20 330L39 230L59 313L78 243L98 331L117 331L137 317L157 321L176 211L196 326L215 235L235 277L254 341L274 279L293 331L313 322L333 221L352 253L372 302L391 226L411 249L430 236L450 321L450 901L430 901L411 901L391 901L372 901L352 901L333 901L313 901L293 901L274 901L254 901L235 901L215 901L196 901L176 901L157 901L137 901L117 901L98 901L78 901L59 901L39 901L20 901L0 901Z" fill="#7578d2"></path><path d="M0 302L20 372L39 350L59 326L78 403L98 338L117 285L137 336L157 403L176 322L196 327L215 408L235 412L254 346L274 315L293 401L313 389L333 319L352 318L372 363L391 306L411 348L430 398L450 318L450 901L430 901L411 901L391 901L372 901L352 901L333 901L313 901L293 901L274 901L254 901L235 901L215 901L196 901L176 901L157 901L137 901L117 901L98 901L78 901L59 901L39 901L20 901L0 901Z" fill="#7e81d6"></path><path d="M0 405L20 450L39 373L59 447L78 459L98 358L117 438L137 381L157 352L176 431L196 382L215 353L235 483L254 351L274 424L293 471L313 405L333 480L352 372L372 449L391 374L411 368L430 403L450 405L450 901L430 901L411 901L391 901L372 901L352 901L333 901L313 901L293 901L274 901L254 901L235 901L215 901L196 901L176 901L157 901L137 901L117 901L98 901L78 901L59 901L39 901L20 901L0 901Z" fill="#878adb"></path><path d="M0 530L20 449L39 539L59 519L78 450L98 461L117 518L137 511L157 475L176 469L196 417L215 417L235 537L254 428L274 457L293 519L313 510L333 467L352 440L372 471L391 492L411 522L430 437L450 478L450 901L430 901L411 901L391 901L372 901L352 901L333 901L313 901L293 901L274 901L254 901L235 901L215 901L196 901L176 901L157 901L137 901L117 901L98 901L78 901L59 901L39 901L20 901L0 901Z" fill="#9194df"></path><path d="M0 565L20 504L39 538L59 501L78 581L98 503L117 551L137 491L157 582L176 590L196 610L215 548L235 532L254 569L274 605L293 605L313 613L333 500L352 588L372 539L391 502L411 503L430 504L450 545L450 901L430 901L411 901L391 901L372 901L352 901L333 901L313 901L293 901L274 901L254 901L235 901L215 901L196 901L176 901L157 901L137 901L117 901L98 901L78 901L59 901L39 901L20 901L0 901Z" fill="#9a9de3"></path><path d="M0 664L20 636L39 647L59 665L78 615L98 602L117 591L137 654L157 675L176 602L196 687L215 590L235 628L254 575L274 623L293 663L313 575L333 654L352 656L372 584L391 662L411 599L430 554L450 599L450 901L430 901L411 901L391 901L372 901L352 901L333 901L313 901L293 901L274 901L254 901L235 901L215 901L196 901L176 901L157 901L137 901L117 901L98 901L78 901L59 901L39 901L20 901L0 901Z" fill="#a3a6e7"></path><path d="M0 676L20 639L39 652L59 744L78 682L98 655L117 629L137 678L157 638L176 685L196 683L215 740L235 639L254 744L274 675L293 677L313 755L333 692L352 647L372 729L391 655L411 746L430 757L450 656L450 901L430 901L411 901L391 901L372 901L352 901L333 901L313 901L293 901L274 901L254 901L235 901L215 901L196 901L176 901L157 901L137 901L117 901L98 901L78 901L59 901L39 901L20 901L0 901Z" fill="#adb0eb"></path><path d="M0 772L20 814L39 778L59 696L78 739L98 816L117 696L137 770L157 822L176 819L196 698L215 728L235 722L254 727L274 727L293 790L313 707L333 763L352 693L372 757L391 815L411 787L430 711L450 763L450 901L430 901L411 901L391 901L372 901L352 901L333 901L313 901L293 901L274 901L254 901L235 901L215 901L196 901L176 901L157 901L137 901L117 901L98 901L78 901L59 901L39 901L20 901L0 901Z" fill="#b6b9ef"></path><path d="M0 880L20 764L39 866L59 845L78 804L98 880L117 828L137 837L157 898L176 819L196 895L215 867L235 858L254 849L274 788L293 762L313 788L333 883L352 853L372 769L391 790L411 767L430 846L450 869L450 901L430 901L411 901L391 901L372 901L352 901L333 901L313 901L293 901L274 901L254 901L235 901L215 901L196 901L176 901L157 901L137 901L117 901L98 901L78 901L59 901L39 901L20 901L0 901Z" fill="#c0c3f3"></path></svg>