<svg width="75" height="76" viewBox="0 0 75 76" fill="none" xmlns="http://www.w3.org/2000/svg">
<g clip-path="url(#clip0_1104_7265)">
<path d="M67.8516 68.7832H75V72.3691H67.8516V68.7832Z" fill="white"/>
<path d="M64.2891 72.3691H67.8516V75.9316H64.2891V72.3691Z" fill="white"/>
<path d="M64.2891 47.3613H60.7031V50.9238H64.2891V54.5098H67.8516V36.6504H64.2891V47.3613Z" fill="white"/>
<path d="M57.1406 68.7832H64.2891V72.3691H57.1406V68.7832Z" fill="white"/>
<path d="M60.7031 33.0879H64.2891V36.6504H60.7031V33.0879Z" fill="white"/>
<path d="M49.9922 65.2207H57.1406V68.7832H49.9922V65.2207Z" fill="white"/>
<path d="M53.5781 50.9238H57.1406V47.3613H60.7031V43.7988H57.1406V33.0879H60.7031V29.502H57.1406V18.791H53.5781V50.9238Z" fill="white"/>
<path d="M46.4297 72.3691H49.9922V75.9316H46.4297V72.3691Z" fill="white"/>
<path d="M46.4297 43.7988H49.9922V47.3613H46.4297V43.7988Z" fill="white"/>
<path d="M46.4297 36.6504H49.9922V40.2129H46.4297V36.6504Z" fill="white"/>
<path d="M42.8438 65.2207H46.4297V72.3691H42.8438V65.2207Z" fill="white"/>
<path d="M32.1328 58.0723H46.4297V61.6582H32.1328V58.0723Z" fill="white"/>
<path d="M42.8438 4.49414H46.4297V8.08008H42.8438V4.49414Z" fill="white"/>
<path d="M35.7188 0.931641H42.8437V4.49414H35.7188V0.931641Z" fill="white"/>
<path d="M46.4297 22.3535H42.8437V18.791H35.7188V22.3535H39.2812V25.9395H35.7188V22.3535H32.1328V29.502H35.7188V33.0879H42.8437V29.502H46.4297V22.3535Z" fill="white"/>
<path d="M32.1328 65.2207H35.7188V72.3691H32.1328V65.2207Z" fill="white"/>
<path d="M24.9844 54.5098H28.5703V58.0723H32.1328V54.5098H46.4297V58.0723H49.9922V54.5098H53.5781V50.9238H24.9844V54.5098Z" fill="white"/>
<path d="M32.1328 4.49414H35.7188V8.08008H32.1328V4.49414Z" fill="white"/>
<path d="M28.5703 72.3691H32.1328V75.9316H28.5703V72.3691Z" fill="white"/>
<path d="M21.4219 65.2207H28.5703V68.7832H21.4219V65.2207Z" fill="white"/>
<path d="M32.1328 11.6426V8.08008H28.5703V11.6426H24.9844V18.791H28.5703V15.2285H49.9922V18.791H53.5781V11.6426H49.9922V8.08008H46.4297V11.6426H32.1328Z" fill="white"/>
<path d="M24.9844 18.791H21.4219V29.502H17.8594V33.0879H21.4219V43.7988H17.8594V47.3613H21.4219V50.9238H24.9844V18.791Z" fill="white"/>
<path d="M14.2734 68.7832H21.4219V72.3691H14.2734V68.7832Z" fill="white"/>
<path d="M14.2734 33.0879H17.8594V36.6504H14.2734V33.0879Z" fill="white"/>
<path d="M10.7109 72.3691H14.2734V75.9316H10.7109V72.3691Z" fill="white"/>
<path d="M14.2734 36.6504H10.7109V54.5098H14.2734V50.9238H17.8594V47.3613H14.2734V36.6504Z" fill="white"/>
<path d="M3.5625 68.7832H10.7109V72.3691H3.5625V68.7832Z" fill="white"/>
<path d="M0 72.3691H3.5625V75.9316H0V72.3691Z" fill="white"/>
</g>
<defs>
<clipPath id="clip0_1104_7265">
<rect width="75" height="75" fill="white" transform="translate(0 0.931641)"/>
</clipPath>
</defs>
</svg>
