<svg width="75" height="76" viewBox="0 0 75 76" fill="none" xmlns="http://www.w3.org/2000/svg">
<path d="M67.8633 17.0098H71.4258V49.1426H67.8633V17.0098Z" fill="white"/>
<path d="M64.3008 49.1426H67.8633V52.7051H64.3008V49.1426Z" fill="white"/>
<path d="M64.3008 13.4238H67.8633V17.0098H64.3008V13.4238Z" fill="white"/>
<path d="M60.7148 52.7051H64.3008V56.291H60.7148V52.7051Z" fill="white"/>
<path d="M60.7148 9.86133H64.3008V13.4238H60.7148V9.86133Z" fill="white"/>
<path d="M57.1523 56.291H60.7148V70.5645H57.1523V56.291Z" fill="white"/>
<path d="M57.1523 31.2832H50.0039V34.8457H46.4414V41.9941H50.0039V45.5801H57.1523V41.9941H60.7148V34.8457H57.1523V31.2832Z" fill="white"/>
<path d="M53.5664 6.27539H60.7148V9.86133H53.5664V6.27539Z" fill="white"/>
<path d="M46.4414 70.5645H57.1523V74.1504H46.4414V70.5645Z" fill="white"/>
<path d="M42.8555 59.8535H46.4414V70.5645H42.8555V59.8535Z" fill="white"/>
<path d="M32.1445 70.5645H42.8555V74.1504H32.1445V70.5645Z" fill="white"/>
<path d="M32.1445 49.1426H42.8555V52.7051H32.1445V49.1426Z" fill="white"/>
<path d="M28.582 59.8535H32.1445V70.5645H28.582V59.8535Z" fill="white"/>
<path d="M21.4336 2.71289H53.5664V6.27539H21.4336V2.71289Z" fill="white"/>
<path d="M17.8711 70.5645H28.582V74.1504H17.8711V70.5645Z" fill="white"/>
<path d="M24.9961 31.2832H17.8711V34.8457H14.2852V41.9941H17.8711V45.5801H24.9961V41.9941H28.582V34.8457H24.9961V31.2832Z" fill="white"/>
<path d="M14.2852 6.27539H21.4336V9.86133H14.2852V6.27539Z" fill="white"/>
<path d="M14.2852 56.291H17.8711V70.5645H14.2852V56.291Z" fill="white"/>
<path d="M10.7227 52.7051H14.2852V56.291H10.7227V52.7051Z" fill="white"/>
<path d="M10.7227 9.86133H14.2852V13.4238H10.7227V9.86133Z" fill="white"/>
<path d="M7.16016 49.1426H10.7227V52.7051H7.16016V49.1426Z" fill="white"/>
<path d="M7.16016 13.4238H10.7227V17.0098H7.16016V13.4238Z" fill="white"/>
<path d="M3.57422 17.0098H7.16016V49.1426H3.57422V17.0098Z" fill="white"/>
</svg>
