<svg id="visual" viewBox="0 0 450 900" width="450" height="900" xmlns="http://www.w3.org/2000/svg" xmlns:xlink="http://www.w3.org/1999/xlink" version="1.1"><path d="M0 55L20 55L20 19L39 19L39 64L59 64L59 28L78 28L78 46L98 46L98 19L117 19L117 19L137 19L137 55L157 55L157 46L176 46L176 46L196 46L196 37L215 37L215 46L235 46L235 46L254 46L254 19L274 19L274 37L293 37L293 37L313 37L313 19L333 19L333 19L352 19L352 55L372 55L372 28L391 28L391 37L411 37L411 46L430 46L430 28L450 28L450 55L450 0L450 0L430 0L430 0L411 0L411 0L391 0L391 0L372 0L372 0L352 0L352 0L333 0L333 0L313 0L313 0L293 0L293 0L274 0L274 0L254 0L254 0L235 0L235 0L215 0L215 0L196 0L196 0L176 0L176 0L157 0L157 0L137 0L137 0L117 0L117 0L98 0L98 0L78 0L78 0L59 0L59 0L39 0L39 0L20 0L20 0L0 0Z" fill="#4e54c1"></path><path d="M0 118L20 118L20 46L39 46L39 109L59 109L59 55L78 55L78 100L98 100L98 64L117 64L117 37L137 37L137 100L157 100L157 100L176 100L176 91L196 91L196 82L215 82L215 73L235 73L235 82L254 82L254 73L274 73L274 91L293 91L293 73L313 73L313 64L333 64L333 73L352 73L352 91L372 91L372 91L391 91L391 73L411 73L411 82L430 82L430 73L450 73L450 91L450 53L450 26L430 26L430 44L411 44L411 35L391 35L391 26L372 26L372 53L352 53L352 17L333 17L333 17L313 17L313 35L293 35L293 35L274 35L274 17L254 17L254 44L235 44L235 44L215 44L215 35L196 35L196 44L176 44L176 44L157 44L157 53L137 53L137 17L117 17L117 17L98 17L98 44L78 44L78 26L59 26L59 62L39 62L39 17L20 17L20 53L0 53Z" fill="#545ac6"></path><path d="M0 163L20 163L20 91L39 91L39 136L59 136L59 100L78 100L78 145L98 145L98 136L117 136L117 64L137 64L137 145L157 145L157 145L176 145L176 145L196 145L196 109L215 109L215 127L235 127L235 145L254 145L254 127L274 127L274 145L293 145L293 109L313 109L313 109L333 109L333 136L352 136L352 118L372 118L372 154L391 154L391 100L411 100L411 109L430 109L430 109L450 109L450 118L450 89L450 71L430 71L430 80L411 80L411 71L391 71L391 89L372 89L372 89L352 89L352 71L333 71L333 62L313 62L313 71L293 71L293 89L274 89L274 71L254 71L254 80L235 80L235 71L215 71L215 80L196 80L196 89L176 89L176 98L157 98L157 98L137 98L137 35L117 35L117 62L98 62L98 98L78 98L78 53L59 53L59 107L39 107L39 44L20 44L20 116L0 116Z" fill="#5a5fcb"></path><path d="M0 181L20 181L20 109L39 109L39 154L59 154L59 118L78 118L78 190L98 190L98 163L117 163L117 109L137 109L137 190L157 190L157 163L176 163L176 172L196 172L196 136L215 136L215 172L235 172L235 172L254 172L254 145L274 145L274 190L293 190L293 145L313 145L313 145L333 145L333 172L352 172L352 136L372 136L372 181L391 181L391 136L411 136L411 127L430 127L430 145L450 145L450 136L450 116L450 107L430 107L430 107L411 107L411 98L391 98L391 152L372 152L372 116L352 116L352 134L333 134L333 107L313 107L313 107L293 107L293 143L274 143L274 125L254 125L254 143L235 143L235 125L215 125L215 107L196 107L196 143L176 143L176 143L157 143L157 143L137 143L137 62L117 62L117 134L98 134L98 143L78 143L78 98L59 98L59 134L39 134L39 89L20 89L20 161L0 161Z" fill="#6065d0"></path><path d="M0 217L20 217L20 181L39 181L39 235L59 235L59 208L78 208L78 253L98 253L98 235L117 235L117 181L137 181L137 235L157 235L157 262L176 262L176 253L196 253L196 226L215 226L215 262L235 262L235 262L254 262L254 199L274 199L274 244L293 244L293 208L313 208L313 172L333 172L333 235L352 235L352 235L372 235L372 280L391 280L391 190L411 190L411 226L430 226L430 235L450 235L450 172L450 134L450 143L430 143L430 125L411 125L411 134L391 134L391 179L372 179L372 134L352 134L352 170L333 170L333 143L313 143L313 143L293 143L293 188L274 188L274 143L254 143L254 170L235 170L235 170L215 170L215 134L196 134L196 170L176 170L176 161L157 161L157 188L137 188L137 107L117 107L117 161L98 161L98 188L78 188L78 116L59 116L59 152L39 152L39 107L20 107L20 179L0 179Z" fill="#666ad5"></path><path d="M0 262L20 262L20 298L39 298L39 325L59 325L59 316L78 316L78 361L98 361L98 307L117 307L117 244L137 244L137 280L157 280L157 361L176 361L176 289L196 289L196 307L215 307L215 352L235 352L235 316L254 316L254 253L274 253L274 280L293 280L293 298L313 298L313 226L333 226L333 361L352 361L352 316L372 316L372 334L391 334L391 316L411 316L411 280L430 280L430 352L450 352L450 235L450 170L450 233L430 233L430 224L411 224L411 188L391 188L391 278L372 278L372 233L352 233L352 233L333 233L333 170L313 170L313 206L293 206L293 242L274 242L274 197L254 197L254 260L235 260L235 260L215 260L215 224L196 224L196 251L176 251L176 260L157 260L157 233L137 233L137 179L117 179L117 233L98 233L98 251L78 251L78 206L59 206L59 233L39 233L39 179L20 179L20 215L0 215Z" fill="#6c70da"></path><path d="M0 280L20 280L20 352L39 352L39 343L59 343L59 352L78 352L78 388L98 388L98 361L117 361L117 289L137 289L137 316L157 316L157 379L176 379L176 343L196 343L196 361L215 361L215 379L235 379L235 370L254 370L254 289L274 289L274 334L293 334L293 352L313 352L313 271L333 271L333 406L352 406L352 334L372 334L372 352L391 352L391 343L411 343L411 307L430 307L430 397L450 397L450 253L450 233L450 350L430 350L430 278L411 278L411 314L391 314L391 332L372 332L372 314L352 314L352 359L333 359L333 224L313 224L313 296L293 296L293 278L274 278L274 251L254 251L254 314L235 314L235 350L215 350L215 305L196 305L196 287L176 287L176 359L157 359L157 278L137 278L137 242L117 242L117 305L98 305L98 359L78 359L78 314L59 314L59 323L39 323L39 296L20 296L20 260L0 260Z" fill="#7276e0"></path><path d="M0 370L20 370L20 487L39 487L39 487L59 487L59 496L78 496L78 433L98 433L98 433L117 433L117 361L137 361L137 478L157 478L157 478L176 478L176 487L196 487L196 469L215 469L215 442L235 442L235 424L254 424L254 343L274 343L274 460L293 460L293 397L313 397L313 379L333 379L333 451L352 451L352 451L372 451L372 442L391 442L391 478L411 478L411 388L430 388L430 496L450 496L450 343L450 251L450 395L430 395L430 305L411 305L411 341L391 341L391 350L372 350L372 332L352 332L352 404L333 404L333 269L313 269L313 350L293 350L293 332L274 332L274 287L254 287L254 368L235 368L235 377L215 377L215 359L196 359L196 341L176 341L176 377L157 377L157 314L137 314L137 287L117 287L117 359L98 359L98 386L78 386L78 350L59 350L59 341L39 341L39 350L20 350L20 278L0 278Z" fill="#787ce5"></path><path d="M0 694L20 694L20 649L39 649L39 649L59 649L59 622L78 622L78 685L98 685L98 712L117 712L117 469L137 469L137 676L157 676L157 685L176 685L176 631L196 631L196 586L215 586L215 658L235 658L235 541L254 541L254 595L274 595L274 568L293 568L293 550L313 550L313 613L333 613L333 559L352 559L352 586L372 586L372 667L391 667L391 712L411 712L411 523L430 523L430 712L450 712L450 604L450 341L450 494L430 494L430 386L411 386L411 476L391 476L391 440L372 440L372 449L352 449L352 449L333 449L333 377L313 377L313 395L293 395L293 458L274 458L274 341L254 341L254 422L235 422L235 440L215 440L215 467L196 467L196 485L176 485L176 476L157 476L157 476L137 476L137 359L117 359L117 431L98 431L98 431L78 431L78 494L59 494L59 485L39 485L39 485L20 485L20 368L0 368Z" fill="#7e82ea"></path><path d="M0 802L20 802L20 784L39 784L39 793L59 793L59 793L78 793L78 802L98 802L98 811L117 811L117 757L137 757L137 820L157 820L157 838L176 838L176 820L196 820L196 775L215 775L215 802L235 802L235 802L254 802L254 757L274 757L274 757L293 757L293 775L313 775L313 757L333 757L333 829L352 829L352 748L372 748L372 793L391 793L391 847L411 847L411 766L430 766L430 793L450 793L450 730L450 602L450 710L430 710L430 521L411 521L411 710L391 710L391 665L372 665L372 584L352 584L352 557L333 557L333 611L313 611L313 548L293 548L293 566L274 566L274 593L254 593L254 539L235 539L235 656L215 656L215 584L196 584L196 629L176 629L176 683L157 683L157 674L137 674L137 467L117 467L117 710L98 710L98 683L78 683L78 620L59 620L59 647L39 647L39 647L20 647L20 692L0 692Z" fill="#8388ef"></path><path d="M0 829L20 829L20 829L39 829L39 865L59 865L59 820L78 820L78 856L98 856L98 874L117 874L117 847L137 847L137 865L157 865L157 874L176 874L176 847L196 847L196 847L215 847L215 856L235 856L235 865L254 865L254 847L274 847L274 829L293 829L293 847L313 847L313 829L333 829L333 865L352 865L352 829L372 829L372 856L391 856L391 874L411 874L411 847L430 847L430 874L450 874L450 820L450 728L450 791L430 791L430 764L411 764L411 845L391 845L391 791L372 791L372 746L352 746L352 827L333 827L333 755L313 755L313 773L293 773L293 755L274 755L274 755L254 755L254 800L235 800L235 800L215 800L215 773L196 773L196 818L176 818L176 836L157 836L157 818L137 818L137 755L117 755L117 809L98 809L98 800L78 800L78 791L59 791L59 791L39 791L39 782L20 782L20 800L0 800Z" fill="#898ef5"></path><path d="M0 901L20 901L20 901L39 901L39 901L59 901L59 901L78 901L78 901L98 901L98 901L117 901L117 901L137 901L137 901L157 901L157 901L176 901L176 901L196 901L196 901L215 901L215 901L235 901L235 901L254 901L254 901L274 901L274 901L293 901L293 901L313 901L313 901L333 901L333 901L352 901L352 901L372 901L372 901L391 901L391 901L411 901L411 901L430 901L430 901L450 901L450 901L450 818L450 872L430 872L430 845L411 845L411 872L391 872L391 854L372 854L372 827L352 827L352 863L333 863L333 827L313 827L313 845L293 845L293 827L274 827L274 845L254 845L254 863L235 863L235 854L215 854L215 845L196 845L196 845L176 845L176 872L157 872L157 863L137 863L137 845L117 845L117 872L98 872L98 854L78 854L78 818L59 818L59 863L39 863L39 827L20 827L20 827L0 827Z" fill="#8f94fa"></path></svg>