<svg id="visual" viewBox="0 0 450 900" width="450" height="900" xmlns="http://www.w3.org/2000/svg" xmlns:xlink="http://www.w3.org/1999/xlink" version="1.1"><path d="M0 28L20 28L20 46L39 46L39 19L59 19L59 37L78 37L78 19L98 19L98 19L117 19L117 55L137 55L137 46L157 46L157 46L176 46L176 28L196 28L196 19L215 19L215 37L235 37L235 37L254 37L254 19L274 19L274 28L293 28L293 28L313 28L313 37L333 37L333 28L352 28L352 46L372 46L372 37L391 37L391 46L411 46L411 46L430 46L430 55L450 55L450 37L450 0L450 0L430 0L430 0L411 0L411 0L391 0L391 0L372 0L372 0L352 0L352 0L333 0L333 0L313 0L313 0L293 0L293 0L274 0L274 0L254 0L254 0L235 0L235 0L215 0L215 0L196 0L196 0L176 0L176 0L157 0L157 0L137 0L137 0L117 0L117 0L98 0L98 0L78 0L78 0L59 0L59 0L39 0L39 0L20 0L20 0L0 0Z" fill="#4e54c1"></path><path d="M0 73L20 73L20 91L39 91L39 46L59 46L59 73L78 73L78 64L98 64L98 64L117 64L117 73L137 73L137 64L157 64L157 73L176 73L176 46L196 46L196 37L215 37L215 55L235 55L235 64L254 64L254 46L274 46L274 55L293 55L293 55L313 55L313 64L333 64L333 64L352 64L352 64L372 64L372 64L391 64L391 82L411 82L411 91L430 91L430 82L450 82L450 73L450 35L450 53L430 53L430 44L411 44L411 44L391 44L391 35L372 35L372 44L352 44L352 26L333 26L333 35L313 35L313 26L293 26L293 26L274 26L274 17L254 17L254 35L235 35L235 35L215 35L215 17L196 17L196 26L176 26L176 44L157 44L157 44L137 44L137 53L117 53L117 17L98 17L98 17L78 17L78 35L59 35L59 17L39 17L39 44L20 44L20 26L0 26Z" fill="#595ec6"></path><path d="M0 127L20 127L20 118L39 118L39 73L59 73L59 109L78 109L78 127L98 127L98 91L117 91L117 136L137 136L137 109L157 109L157 91L176 91L176 91L196 91L196 64L215 64L215 118L235 118L235 100L254 100L254 100L274 100L274 91L293 91L293 91L313 91L313 100L333 100L333 118L352 118L352 118L372 118L372 91L391 91L391 145L411 145L411 118L430 118L430 109L450 109L450 136L450 71L450 80L430 80L430 89L411 89L411 80L391 80L391 62L372 62L372 62L352 62L352 62L333 62L333 62L313 62L313 53L293 53L293 53L274 53L274 44L254 44L254 62L235 62L235 53L215 53L215 35L196 35L196 44L176 44L176 71L157 71L157 62L137 62L137 71L117 71L117 62L98 62L98 62L78 62L78 71L59 71L59 44L39 44L39 89L20 89L20 71L0 71Z" fill="#6467cb"></path><path d="M0 181L20 181L20 163L39 163L39 100L59 100L59 145L78 145L78 145L98 145L98 127L117 127L117 190L137 190L137 154L157 154L157 136L176 136L176 109L196 109L196 127L215 127L215 136L235 136L235 154L254 154L254 127L274 127L274 109L293 109L293 118L313 118L313 127L333 127L333 136L352 136L352 163L372 163L372 136L391 136L391 172L411 172L411 163L430 163L430 163L450 163L450 172L450 134L450 107L430 107L430 116L411 116L411 143L391 143L391 89L372 89L372 116L352 116L352 116L333 116L333 98L313 98L313 89L293 89L293 89L274 89L274 98L254 98L254 98L235 98L235 116L215 116L215 62L196 62L196 89L176 89L176 89L157 89L157 107L137 107L137 134L117 134L117 89L98 89L98 125L78 125L78 107L59 107L59 71L39 71L39 116L20 116L20 125L0 125Z" fill="#6e71cf"></path><path d="M0 244L20 244L20 190L39 190L39 136L59 136L59 172L78 172L78 172L98 172L98 163L117 163L117 217L137 217L137 172L157 172L157 163L176 163L176 163L196 163L196 181L215 181L215 199L235 199L235 181L254 181L254 172L274 172L274 145L293 145L293 190L313 190L313 190L333 190L333 163L352 163L352 208L372 208L372 172L391 172L391 217L411 217L411 190L430 190L430 190L450 190L450 235L450 170L450 161L430 161L430 161L411 161L411 170L391 170L391 134L372 134L372 161L352 161L352 134L333 134L333 125L313 125L313 116L293 116L293 107L274 107L274 125L254 125L254 152L235 152L235 134L215 134L215 125L196 125L196 107L176 107L176 134L157 134L157 152L137 152L137 188L117 188L117 125L98 125L98 143L78 143L78 143L59 143L59 98L39 98L39 161L20 161L20 179L0 179Z" fill="#797bd4"></path><path d="M0 307L20 307L20 271L39 271L39 199L59 199L59 253L78 253L78 226L98 226L98 217L117 217L117 253L137 253L137 208L157 208L157 190L176 190L176 190L196 190L196 262L215 262L215 226L235 226L235 235L254 235L254 253L274 253L274 199L293 199L293 262L313 262L313 271L333 271L333 226L352 226L352 244L372 244L372 226L391 226L391 262L411 262L411 262L430 262L430 235L450 235L450 316L450 233L450 188L430 188L430 188L411 188L411 215L391 215L391 170L372 170L372 206L352 206L352 161L333 161L333 188L313 188L313 188L293 188L293 143L274 143L274 170L254 170L254 179L235 179L235 197L215 197L215 179L196 179L196 161L176 161L176 161L157 161L157 170L137 170L137 215L117 215L117 161L98 161L98 170L78 170L78 170L59 170L59 134L39 134L39 188L20 188L20 242L0 242Z" fill="#8385d9"></path><path d="M0 406L20 406L20 325L39 325L39 253L59 253L59 397L78 397L78 298L98 298L98 325L117 325L117 343L137 343L137 361L157 361L157 325L176 325L176 334L196 334L196 406L215 406L215 361L235 361L235 325L254 325L254 415L274 415L274 271L293 271L293 415L313 415L313 343L333 343L333 343L352 343L352 334L372 334L372 397L391 397L391 424L411 424L411 343L430 343L430 415L450 415L450 361L450 314L450 233L430 233L430 260L411 260L411 260L391 260L391 224L372 224L372 242L352 242L352 224L333 224L333 269L313 269L313 260L293 260L293 197L274 197L274 251L254 251L254 233L235 233L235 224L215 224L215 260L196 260L196 188L176 188L176 188L157 188L157 206L137 206L137 251L117 251L117 215L98 215L98 224L78 224L78 251L59 251L59 197L39 197L39 269L20 269L20 305L0 305Z" fill="#8d8fdd"></path><path d="M0 541L20 541L20 595L39 595L39 424L59 424L59 559L78 559L78 433L98 433L98 469L117 469L117 514L137 514L137 523L157 523L157 532L176 532L176 505L196 505L196 577L215 577L215 496L235 496L235 559L254 559L254 622L274 622L274 442L293 442L293 613L313 613L313 622L333 622L333 478L352 478L352 415L372 415L372 577L391 577L391 523L411 523L411 568L430 568L430 523L450 523L450 469L450 359L450 413L430 413L430 341L411 341L411 422L391 422L391 395L372 395L372 332L352 332L352 341L333 341L333 341L313 341L313 413L293 413L293 269L274 269L274 413L254 413L254 323L235 323L235 359L215 359L215 404L196 404L196 332L176 332L176 323L157 323L157 359L137 359L137 341L117 341L117 323L98 323L98 296L78 296L78 395L59 395L59 251L39 251L39 323L20 323L20 404L0 404Z" fill="#9799e2"></path><path d="M0 712L20 712L20 712L39 712L39 658L59 658L59 721L78 721L78 694L98 694L98 658L117 658L117 694L137 694L137 721L157 721L157 730L176 730L176 685L196 685L196 721L215 721L215 721L235 721L235 694L254 694L254 721L274 721L274 622L293 622L293 712L313 712L313 730L333 730L333 703L352 703L352 676L372 676L372 739L391 739L391 721L411 721L411 748L430 748L430 739L450 739L450 694L450 467L450 521L430 521L430 566L411 566L411 521L391 521L391 575L372 575L372 413L352 413L352 476L333 476L333 620L313 620L313 611L293 611L293 440L274 440L274 620L254 620L254 557L235 557L235 494L215 494L215 575L196 575L196 503L176 503L176 530L157 530L157 521L137 521L137 512L117 512L117 467L98 467L98 431L78 431L78 557L59 557L59 422L39 422L39 593L20 593L20 539L0 539Z" fill="#a1a4e6"></path><path d="M0 748L20 748L20 766L39 766L39 730L59 730L59 784L78 784L78 784L98 784L98 757L117 757L117 757L137 757L137 766L157 766L157 793L176 793L176 766L196 766L196 811L215 811L215 784L235 784L235 766L254 766L254 811L274 811L274 730L293 730L293 766L313 766L313 793L333 793L333 775L352 775L352 766L372 766L372 811L391 811L391 802L411 802L411 802L430 802L430 784L450 784L450 757L450 692L450 737L430 737L430 746L411 746L411 719L391 719L391 737L372 737L372 674L352 674L352 701L333 701L333 728L313 728L313 710L293 710L293 620L274 620L274 719L254 719L254 692L235 692L235 719L215 719L215 719L196 719L196 683L176 683L176 728L157 728L157 719L137 719L137 692L117 692L117 656L98 656L98 692L78 692L78 719L59 719L59 656L39 656L39 710L20 710L20 710L0 710Z" fill="#abaeeb"></path><path d="M0 811L20 811L20 802L39 802L39 793L59 793L59 811L78 811L78 811L98 811L98 829L117 829L117 829L137 829L137 802L157 802L157 847L176 847L176 829L196 829L196 865L215 865L215 856L235 856L235 811L254 811L254 838L274 838L274 793L293 793L293 838L313 838L313 838L333 838L333 802L352 802L352 820L372 820L372 847L391 847L391 865L411 865L411 865L430 865L430 856L450 856L450 820L450 755L450 782L430 782L430 800L411 800L411 800L391 800L391 809L372 809L372 764L352 764L352 773L333 773L333 791L313 791L313 764L293 764L293 728L274 728L274 809L254 809L254 764L235 764L235 782L215 782L215 809L196 809L196 764L176 764L176 791L157 791L157 764L137 764L137 755L117 755L117 755L98 755L98 782L78 782L78 782L59 782L59 728L39 728L39 764L20 764L20 746L0 746Z" fill="#b6b9ef"></path><path d="M0 901L20 901L20 901L39 901L39 901L59 901L59 901L78 901L78 901L98 901L98 901L117 901L117 901L137 901L137 901L157 901L157 901L176 901L176 901L196 901L196 901L215 901L215 901L235 901L235 901L254 901L254 901L274 901L274 901L293 901L293 901L313 901L313 901L333 901L333 901L352 901L352 901L372 901L372 901L391 901L391 901L411 901L411 901L430 901L430 901L450 901L450 901L450 818L450 854L430 854L430 863L411 863L411 863L391 863L391 845L372 845L372 818L352 818L352 800L333 800L333 836L313 836L313 836L293 836L293 791L274 791L274 836L254 836L254 809L235 809L235 854L215 854L215 863L196 863L196 827L176 827L176 845L157 845L157 800L137 800L137 827L117 827L117 827L98 827L98 809L78 809L78 809L59 809L59 791L39 791L39 800L20 800L20 809L0 809Z" fill="#c0c3f3"></path></svg>