<svg id="visual" viewBox="0 0 450 900" width="450" height="900" xmlns="http://www.w3.org/2000/svg" xmlns:xlink="http://www.w3.org/1999/xlink" version="1.1"><path d="M0 82L50 73L100 82L150 28L200 37L250 64L300 82L350 73L400 37L450 64L450 0L400 0L350 0L300 0L250 0L200 0L150 0L100 0L50 0L0 0Z" fill="#4e54c1"></path><path d="M0 109L50 145L100 118L150 91L200 64L250 109L300 109L350 118L400 91L450 118L450 62L400 35L350 71L300 80L250 62L200 35L150 26L100 80L50 71L0 80Z" fill="#565cc8"></path><path d="M0 235L50 262L100 199L150 199L200 208L250 181L300 181L350 253L400 145L450 226L450 116L400 89L350 116L300 107L250 107L200 62L150 89L100 116L50 143L0 107Z" fill="#5f63cf"></path><path d="M0 307L50 361L100 307L150 271L200 334L250 289L300 253L350 325L400 226L450 271L450 224L400 143L350 251L300 179L250 179L200 206L150 197L100 197L50 260L0 233Z" fill="#676bd6"></path><path d="M0 433L50 505L100 424L150 397L200 469L250 406L300 442L350 451L400 388L450 406L450 269L400 224L350 323L300 251L250 287L200 332L150 269L100 305L50 359L0 305Z" fill="#6f73dd"></path><path d="M0 550L50 658L100 712L150 640L200 694L250 613L300 622L350 613L400 676L450 667L450 404L400 386L350 449L300 440L250 404L200 467L150 395L100 422L50 503L0 431Z" fill="#777be4"></path><path d="M0 649L50 685L100 757L150 676L200 730L250 676L300 676L350 703L400 721L450 757L450 665L400 674L350 611L300 620L250 611L200 692L150 638L100 710L50 656L0 548Z" fill="#7f83eb"></path><path d="M0 712L50 748L100 802L150 730L200 757L250 721L300 739L350 730L400 793L450 811L450 755L400 719L350 701L300 674L250 674L200 728L150 674L100 755L50 683L0 647Z" fill="#878cf3"></path><path d="M0 901L50 901L100 901L150 901L200 901L250 901L300 901L350 901L400 901L450 901L450 809L400 791L350 728L300 737L250 719L200 755L150 728L100 800L50 746L0 710Z" fill="#8f94fa"></path></svg>