<svg id="visual" viewBox="0 0 450 900" width="450" height="900" xmlns="http://www.w3.org/2000/svg" xmlns:xlink="http://www.w3.org/1999/xlink" version="1.1"><path d="M0 46L20 46L20 64L39 64L39 64L59 64L59 28L78 28L78 55L98 55L98 19L117 19L117 28L137 28L137 55L157 55L157 46L176 46L176 46L196 46L196 28L215 28L215 46L235 46L235 28L254 28L254 46L274 46L274 46L293 46L293 28L313 28L313 55L333 55L333 19L352 19L352 37L372 37L372 46L391 46L391 28L411 28L411 64L430 64L430 19L450 19L450 19L450 0L450 0L430 0L430 0L411 0L411 0L391 0L391 0L372 0L372 0L352 0L352 0L333 0L333 0L313 0L313 0L293 0L293 0L274 0L274 0L254 0L254 0L235 0L235 0L215 0L215 0L196 0L196 0L176 0L176 0L157 0L157 0L137 0L137 0L117 0L117 0L98 0L98 0L78 0L78 0L59 0L59 0L39 0L39 0L20 0L20 0L0 0Z" fill="#4e54c1"></path><path d="M0 73L20 73L20 91L39 91L39 109L59 109L59 55L78 55L78 91L98 91L98 64L117 64L117 64L137 64L137 100L157 100L157 100L176 100L176 100L196 100L196 73L215 73L215 82L235 82L235 73L254 73L254 82L274 82L274 73L293 73L293 55L313 55L313 73L333 73L333 64L352 64L352 55L372 55L372 73L391 73L391 82L411 82L411 91L430 91L430 73L450 73L450 55L450 17L450 17L430 17L430 62L411 62L411 26L391 26L391 44L372 44L372 35L352 35L352 17L333 17L333 53L313 53L313 26L293 26L293 44L274 44L274 44L254 44L254 26L235 26L235 44L215 44L215 26L196 26L196 44L176 44L176 44L157 44L157 53L137 53L137 26L117 26L117 17L98 17L98 53L78 53L78 26L59 26L59 62L39 62L39 62L20 62L20 44L0 44Z" fill="#595ec6"></path><path d="M0 145L20 145L20 163L39 163L39 163L59 163L59 127L78 127L78 127L98 127L98 100L117 100L117 100L137 100L137 163L157 163L157 145L176 145L176 136L196 136L196 145L215 145L215 136L235 136L235 127L254 127L254 136L274 136L274 145L293 145L293 91L313 91L313 154L333 154L333 100L352 100L352 91L372 91L372 100L391 100L391 154L411 154L411 145L430 145L430 136L450 136L450 100L450 53L450 71L430 71L430 89L411 89L411 80L391 80L391 71L372 71L372 53L352 53L352 62L333 62L333 71L313 71L313 53L293 53L293 71L274 71L274 80L254 80L254 71L235 71L235 80L215 80L215 71L196 71L196 98L176 98L176 98L157 98L157 98L137 98L137 62L117 62L117 62L98 62L98 89L78 89L78 53L59 53L59 107L39 107L39 89L20 89L20 71L0 71Z" fill="#6467cb"></path><path d="M0 190L20 190L20 226L39 226L39 190L59 190L59 181L78 181L78 154L98 154L98 136L117 136L117 154L137 154L137 199L157 199L157 172L176 172L176 199L196 199L196 208L215 208L215 190L235 190L235 172L254 172L254 181L274 181L274 181L293 181L293 154L313 154L313 181L333 181L333 118L352 118L352 136L372 136L372 127L391 127L391 172L411 172L411 190L430 190L430 190L450 190L450 163L450 98L450 134L430 134L430 143L411 143L411 152L391 152L391 98L372 98L372 89L352 89L352 98L333 98L333 152L313 152L313 89L293 89L293 143L274 143L274 134L254 134L254 125L235 125L235 134L215 134L215 143L196 143L196 134L176 134L176 143L157 143L157 161L137 161L137 98L117 98L117 98L98 98L98 125L78 125L78 125L59 125L59 161L39 161L39 161L20 161L20 143L0 143Z" fill="#6e71cf"></path><path d="M0 217L20 217L20 298L39 298L39 217L59 217L59 235L78 235L78 217L98 217L98 208L117 208L117 199L137 199L137 271L157 271L157 253L176 253L176 226L196 226L196 289L215 289L215 253L235 253L235 244L254 244L254 208L274 208L274 226L293 226L293 235L313 235L313 244L333 244L333 181L352 181L352 190L372 190L372 163L391 163L391 199L411 199L411 235L430 235L430 226L450 226L450 190L450 161L450 188L430 188L430 188L411 188L411 170L391 170L391 125L372 125L372 134L352 134L352 116L333 116L333 179L313 179L313 152L293 152L293 179L274 179L274 179L254 179L254 170L235 170L235 188L215 188L215 206L196 206L196 197L176 197L176 170L157 170L157 197L137 197L137 152L117 152L117 134L98 134L98 152L78 152L78 179L59 179L59 188L39 188L39 224L20 224L20 188L0 188Z" fill="#797bd4"></path><path d="M0 253L20 253L20 334L39 334L39 253L59 253L59 253L78 253L78 244L98 244L98 226L117 226L117 217L137 217L137 316L157 316L157 280L176 280L176 253L196 253L196 316L215 316L215 271L235 271L235 280L254 280L254 235L274 235L274 253L293 253L293 271L313 271L313 262L333 262L333 226L352 226L352 217L372 217L372 181L391 181L391 244L411 244L411 253L430 253L430 262L450 262L450 217L450 188L450 224L430 224L430 233L411 233L411 197L391 197L391 161L372 161L372 188L352 188L352 179L333 179L333 242L313 242L313 233L293 233L293 224L274 224L274 206L254 206L254 242L235 242L235 251L215 251L215 287L196 287L196 224L176 224L176 251L157 251L157 269L137 269L137 197L117 197L117 206L98 206L98 215L78 215L78 233L59 233L59 215L39 215L39 296L20 296L20 215L0 215Z" fill="#8385d9"></path><path d="M0 307L20 307L20 370L39 370L39 271L59 271L59 298L78 298L78 298L98 298L98 280L117 280L117 262L137 262L137 370L157 370L157 334L176 334L176 271L196 271L196 370L215 370L215 289L235 289L235 334L254 334L254 289L274 289L274 271L293 271L293 298L313 298L313 280L333 280L333 271L352 271L352 253L372 253L372 235L391 235L391 289L411 289L411 307L430 307L430 307L450 307L450 271L450 215L450 260L430 260L430 251L411 251L411 242L391 242L391 179L372 179L372 215L352 215L352 224L333 224L333 260L313 260L313 269L293 269L293 251L274 251L274 233L254 233L254 278L235 278L235 269L215 269L215 314L196 314L196 251L176 251L176 278L157 278L157 314L137 314L137 215L117 215L117 224L98 224L98 242L78 242L78 251L59 251L59 251L39 251L39 332L20 332L20 251L0 251Z" fill="#8d8fdd"></path><path d="M0 415L20 415L20 460L39 460L39 424L59 424L59 424L78 424L78 469L98 469L98 406L117 406L117 361L137 361L137 451L157 451L157 451L176 451L176 415L196 415L196 496L215 496L215 361L235 361L235 388L254 388L254 370L274 370L274 379L293 379L293 352L313 352L313 415L333 415L333 397L352 397L352 334L372 334L372 406L391 406L391 370L411 370L411 442L430 442L430 451L450 451L450 334L450 269L450 305L430 305L430 305L411 305L411 287L391 287L391 233L372 233L372 251L352 251L352 269L333 269L333 278L313 278L313 296L293 296L293 269L274 269L274 287L254 287L254 332L235 332L235 287L215 287L215 368L196 368L196 269L176 269L176 332L157 332L157 368L137 368L137 260L117 260L117 278L98 278L98 296L78 296L78 296L59 296L59 269L39 269L39 368L20 368L20 305L0 305Z" fill="#9799e2"></path><path d="M0 631L20 631L20 613L39 613L39 514L59 514L59 550L78 550L78 622L98 622L98 514L117 514L117 541L137 541L137 685L157 685L157 577L176 577L176 667L196 667L196 631L215 631L215 550L235 550L235 541L254 541L254 667L274 667L274 550L293 550L293 649L313 649L313 586L333 586L333 631L352 631L352 568L372 568L372 505L391 505L391 541L411 541L411 622L430 622L430 577L450 577L450 631L450 332L450 449L430 449L430 440L411 440L411 368L391 368L391 404L372 404L372 332L352 332L352 395L333 395L333 413L313 413L313 350L293 350L293 377L274 377L274 368L254 368L254 386L235 386L235 359L215 359L215 494L196 494L196 413L176 413L176 449L157 449L157 449L137 449L137 359L117 359L117 404L98 404L98 467L78 467L78 422L59 422L59 422L39 422L39 458L20 458L20 413L0 413Z" fill="#a1a4e6"></path><path d="M0 694L20 694L20 676L39 676L39 631L59 631L59 622L78 622L78 676L98 676L98 559L117 559L117 640L137 640L137 730L157 730L157 685L176 685L176 721L196 721L196 730L215 730L215 649L235 649L235 577L254 577L254 748L274 748L274 649L293 649L293 694L313 694L313 658L333 658L333 676L352 676L352 658L372 658L372 604L391 604L391 613L411 613L411 739L430 739L430 667L450 667L450 757L450 629L450 575L430 575L430 620L411 620L411 539L391 539L391 503L372 503L372 566L352 566L352 629L333 629L333 584L313 584L313 647L293 647L293 548L274 548L274 665L254 665L254 539L235 539L235 548L215 548L215 629L196 629L196 665L176 665L176 575L157 575L157 683L137 683L137 539L117 539L117 512L98 512L98 620L78 620L78 548L59 548L59 512L39 512L39 611L20 611L20 629L0 629Z" fill="#abaeeb"></path><path d="M0 748L20 748L20 748L39 748L39 685L59 685L59 658L78 658L78 712L98 712L98 631L117 631L117 694L137 694L137 784L157 784L157 775L176 775L176 757L196 757L196 793L215 793L215 703L235 703L235 658L254 658L254 811L274 811L274 703L293 703L293 766L313 766L313 703L333 703L333 757L352 757L352 766L372 766L372 649L391 649L391 658L411 658L411 829L430 829L430 757L450 757L450 811L450 755L450 665L430 665L430 737L411 737L411 611L391 611L391 602L372 602L372 656L352 656L352 674L333 674L333 656L313 656L313 692L293 692L293 647L274 647L274 746L254 746L254 575L235 575L235 647L215 647L215 728L196 728L196 719L176 719L176 683L157 683L157 728L137 728L137 638L117 638L117 557L98 557L98 674L78 674L78 620L59 620L59 629L39 629L39 674L20 674L20 692L0 692Z" fill="#b6b9ef"></path><path d="M0 901L20 901L20 901L39 901L39 901L59 901L59 901L78 901L78 901L98 901L98 901L117 901L117 901L137 901L137 901L157 901L157 901L176 901L176 901L196 901L196 901L215 901L215 901L235 901L235 901L254 901L254 901L274 901L274 901L293 901L293 901L313 901L313 901L333 901L333 901L352 901L352 901L372 901L372 901L391 901L391 901L411 901L411 901L430 901L430 901L450 901L450 901L450 809L450 755L430 755L430 827L411 827L411 656L391 656L391 647L372 647L372 764L352 764L352 755L333 755L333 701L313 701L313 764L293 764L293 701L274 701L274 809L254 809L254 656L235 656L235 701L215 701L215 791L196 791L196 755L176 755L176 773L157 773L157 782L137 782L137 692L117 692L117 629L98 629L98 710L78 710L78 656L59 656L59 683L39 683L39 746L20 746L20 746L0 746Z" fill="#c0c3f3"></path></svg>