<svg width="304" height="112" viewBox="0 0 304 112" fill="none" xmlns="http://www.w3.org/2000/svg">
<path d="M274.636 29.4512H35.4849C31.1135 29.4512 27.5698 32.9819 27.5698 37.3373V82.6254C27.5698 86.9809 31.1135 90.5116 35.4849 90.5116H274.636C279.007 90.5116 282.551 86.9809 282.551 82.6254V37.3373C282.551 32.9819 279.007 29.4512 274.636 29.4512Z" fill="black"/>
<path d="M268.521 23.229H29.37C24.9986 23.229 21.455 26.7598 21.455 31.1152V76.4033C21.455 80.7587 24.9986 84.2894 29.37 84.2894H268.521C272.892 84.2894 276.436 80.7587 276.436 76.4033V31.1152C276.436 26.7598 272.892 23.229 268.521 23.229Z" fill="black"/>
<path d="M36.8365 78.9792V31.7563H55.7949V41.2009H46.3157V69.5347H55.7949V78.9792H36.8365ZM55.7949 69.5347V41.2009H65.274V69.5347H55.7949Z" fill="white" stroke="white" stroke-width="3" stroke-miterlimit="10"/>
<path d="M84.2323 41.2068V50.6514H93.7115V60.0959H84.2323V69.5405H103.191V78.9851H74.7532V31.7622H103.191V41.2068H84.2323Z" fill="white" stroke="white" stroke-width="3" stroke-miterlimit="10"/>
<path d="M112.67 69.5347V41.2009H122.178V69.5347H112.67ZM122.178 41.2009V31.7563H141.137V41.2009H122.178ZM122.178 78.9792V69.5347H131.622V78.9792H122.178ZM131.622 69.5347V50.6455H141.101V69.5347H131.622Z" fill="white" stroke="white" stroke-width="3" stroke-miterlimit="10"/>
<path d="M150.586 78.9792V31.7563H179.024V41.2009H160.066V50.6455H169.545V60.0901H160.066V69.5347H179.024V78.9792H150.586Z" fill="white" stroke="white" stroke-width="3" stroke-miterlimit="10"/>
<path d="M188.503 78.9792V31.7563H197.982V41.2009H207.461V50.6455H197.982V78.9792H188.503ZM216.935 78.9792V60.0901H207.461V50.6455H216.935V31.7563H226.414V78.9792H216.935Z" fill="white" stroke="white" stroke-width="3" stroke-miterlimit="10"/>
<path d="M235.893 50.6455V41.2009H245.372V50.6455H235.893ZM235.893 78.9792V69.5347H254.851V78.9792H235.893ZM245.372 41.2009V31.7563H264.33V41.2009H245.372ZM245.372 60.0901V50.6455H254.851V60.0901H245.372ZM254.851 69.5347V60.0901H264.33V69.5347H254.851Z" fill="white" stroke="white" stroke-width="3" stroke-miterlimit="10"/>
</svg>
