<?xml version="1.0" standalone="yes"?>
<svg xmlns="http://www.w3.org/2000/svg" width="250" height="250">
<path style="fill:#010101; stroke:none;" d="M0 0L0 250L250 250L250 0L0 0z"/>
<path style="fill:#8d63f1; stroke:none;" d="M81 103L82 103C86.7233 93.8366 95.9342 110.446 96 116L97 116C97.1026 107.338 106.92 100.103 112 110C118.989 110 130.413 107.792 136.852 110.603C143.847 113.658 138.182 120.605 133 121C131.057 115.145 123.129 117 118 117L117 121L134 122L133 129L117 129L118 133C128.341 133 139.951 125.014 140 139L146.028 126.213L153.972 119.471L161 105C162.149 109.828 163.554 118.274 160.972 122.816C159.189 125.951 155.079 126.994 153.603 130.326C151.2 135.753 153.335 142.822 145.001 144.133C141.018 144.76 138.503 141.155 134.91 140.302C130.115 139.165 124.778 140.396 120 141L125 147L126 147C134.517 141.394 135.51 146.121 144 146.508C151.58 146.854 153.808 140.048 160 148L145 155.427L133 152L133 153L142 157C139.022 163.199 151.628 177.876 158.17 178.458C163.648 178.944 169.852 171.552 173.076 167.91C208.833 127.524 178.376 55.8954 122 61.1698C106.19 62.6489 91.9877 67.3462 80.2863 78.5903C77.2876 81.4718 70.9494 87.2003 71.3025 91.8302C71.6206 96.0023 78.4034 99.9985 81 103z"/>
<path style="fill:#bba8f7; stroke:none;" d="M124.278 77.3449C121.762 78.3411 123.088 82.6985 125.722 81.6551C128.238 80.6589 126.912 76.3015 124.278 77.3449z"/>
<path style="fill:#f5f3fe; stroke:none;" d="M124 77L123 81L126 82L126 77L124 77z"/>
<path style="fill:#bba8f7; stroke:none;" d="M109 91C115.82 98.9004 125.825 92.6715 123 83L109 91M127 83C124.713 90.8255 129.656 93.6225 136 97C131.9 92.1798 127.23 91.0206 127 84L131 86L127 83z"/>
<path style="fill:#f5f3fe; stroke:none;" d="M122 84L110 92C116.317 95.3902 125.518 92.4778 122 84M127 84C127.085 91.1375 130.631 91.0854 134.397 96.2099C136.718 99.368 135.044 103.441 137.028 106.621C140.857 112.761 145.9 112.538 146 121C158.565 115.969 148.085 108.971 143.603 103.471C141.147 100.457 142.901 96.6429 141.397 93.3789C139.347 88.9321 131.253 85.8326 127 84z"/>
<path style="fill:#bba8f7; stroke:none;" d="M132 86L133 87L132 86M133.667 87.3333L134.333 87.6667L133.667 87.3333z"/>
<path style="fill:#698bec; stroke:none;" d="M72 88L73 89L72 88z"/>
<path style="fill:#bba8f7; stroke:none;" d="M135.667 88.3333L136.333 88.6667L135.667 88.3333M137 89L138 90L137 89M138.667 90.3333L139.333 90.6667L138.667 90.3333M140.667 91.3333L141.333 91.6667L140.667 91.3333z"/>
<path style="fill:#698bec; stroke:none;" d="M69 92C65.5388 104.553 59.8701 115.389 61.1698 129C64.3761 162.579 89.6094 188.308 124 188.985C136.504 189.231 146.531 184.969 158 181L141 156L140 156C138.427 161.26 130.764 164.006 126 166C126.085 158.788 129.172 155.972 136 154L136 153C126.899 152.248 117.169 158.276 117 144L125 147L120 141L124 141L124 140L113 140C114.147 143.7 113.138 148.503 115.028 151.815C118.604 158.082 123.9 157.577 124 166C118.998 163.906 110.836 160.731 108.028 155.815C106.334 152.85 107.704 149.155 105.972 146.213C101.359 138.378 90.7718 133.832 105 127C105.004 132.408 104.911 136.145 110 139C110.046 126.011 120.886 129 131 129L131 128L107 129L106 118L105 118C104.469 124.979 99.0861 124.973 96.0278 130.21C92.4601 136.319 95.9837 140.446 88 144L88.6034 127.104L95.9329 119.671L96 108L95 108C94.9992 114.897 94.8369 118.957 88 122L89 103L88 103C81.906 106.48 74.39 94.5642 69 92z"/>
<path style="fill:#bba8f7; stroke:none;" d="M142 92L144 104L142 92M93 100L93 101C96.94 99.3509 101.671 95.2995 106 95.2978C109.625 95.2964 112.31 98.6332 116 98.3573C123.238 97.816 132.053 91.5508 133 104C124.665 101.178 123.015 104.962 115.412 104.866C111.992 104.823 109.564 101.315 106 101.315C101.456 101.315 93.9972 109.013 92 101L91 101L90 104L106 102.997L115 105.971L124 103.089L134 105C133.831 90.6617 124.761 96.3315 116 96.8025C112.722 96.9787 110.164 94.2648 107 93.8519C102.288 93.2368 96.8657 97.7203 93 100z"/>
<path style="fill:#f5f3fe; stroke:none;" d="M91 102L91 103L106 101.836L115 104.961L124 102.039L133 104C132.578 91.0979 123.507 97.2789 116 97.8827C112.339 98.1772 109.635 94.7866 106 94.787C101.146 94.7877 95.0941 99.6082 91 102z"/>
<path style="fill:#bba8f7; stroke:none;" d="M145 95C145.05 99.2077 145.266 101.71 149 104L149 103L145 95z"/>
<path style="fill:#f5f3fe; stroke:none;" d="M146 95C146.097 103.148 151.486 107.032 159 103L159 102L146 95z"/>
<path style="fill:#bba8f7; stroke:none;" d="M147.667 95.3333L148.333 95.6667L147.667 95.3333z"/>
<path style="fill:#698bec; stroke:none;" d="M99 96L100 97L99 96z"/>
<path style="fill:#bba8f7; stroke:none;" d="M149.667 96.3333L150.333 96.6667L149.667 96.3333z"/>
<path style="fill:#698bec; stroke:none;" d="M97 97L98 98L97 97z"/>
<path style="fill:#bba8f7; stroke:none;" d="M151 97L152 98L151 97z"/>
<path style="fill:#698bec; stroke:none;" d="M85 98L86 99L85 98z"/>
<path style="fill:#bba8f7; stroke:none;" d="M152.667 98.3333L153.333 98.6667L152.667 98.3333z"/>
<path style="fill:#698bec; stroke:none;" d="M83 99L82 101L83 99z"/>
<path style="fill:#bba8f7; stroke:none;" d="M85 105L83 101L88 101L86 105C92.764 100.012 78.6792 98.2025 85 105z"/>
<path style="fill:#698bec; stroke:none;" d="M87 99L88 100L87 99z"/>
<path style="fill:#bba8f7; stroke:none;" d="M154.667 99.3333L155.333 99.6667L154.667 99.3333M164 105L163 100L166 100L165 105C170.97 98.2 157.574 100.087 164 105z"/>
<path style="fill:#f5f3fe; stroke:none;" d="M83 101L85 105L86 105L88 101L83 101z"/>
<path style="fill:#698bec; stroke:none;" d="M88 100L89 101L88 100M92 100L93 101L92 100z"/>
<path style="fill:#bba8f7; stroke:none;" d="M156 100L157 101L156 100z"/>
<path style="fill:#f5f3fe; stroke:none;" d="M163 100L164 105L165 105L166 100L163 100z"/>
<path style="fill:#698bec; stroke:none;" d="M90 101L91 102L90 101z"/>
<path style="fill:#bba8f7; stroke:none;" d="M158 101L159 102L158 101z"/>
<path style="fill:#698bec; stroke:none;" d="M104 102L105 103L104 102M107 102L108 103L107 102z"/>
<path style="fill:#bba8f7; stroke:none;" d="M159 102L158 104L160 104L159 102z"/>
<path style="fill:#698bec; stroke:none;" d="M91 104L92 105L91 104M104 104L105 105L104 104z"/>
<path style="fill:#bba8f7; stroke:none;" d="M88 144L95 141L95 140L89 143C89 138.344 87.4879 130.455 90.0278 126.379C91.7507 123.614 95.325 122.699 96.9722 119.815C101.181 112.446 98.9862 104.446 111 107C109.604 113.745 108.395 120.717 117 121C120.13 115.325 129.87 115.325 133 121C137.911 120.839 144.482 113.95 137.682 110.603C131.246 107.437 118.148 110 111 110L112 107C100.539 100.683 99.5395 110.09 96.3966 117.907C94.9707 121.453 90.9415 122.308 89.0278 125.379C86.2529 129.832 88 138.893 88 144z"/>
<path style="fill:#698bec; stroke:none;" d="M107 104L108 105L107 104z"/>
<path style="fill:#bba8f7; stroke:none;" d="M144 104L145 105L144 104M150 104L151 105L150 104M156.667 104.333L157.333 104.667L156.667 104.333M89 105L88 122L95 119L95 118L89 121L89 106L95 109L89 105z"/>
<path style="fill:#698bec; stroke:none;" d="M90 105L91 106L90 105M93 105L94 106L93 105M99 105L100 106L99 105z"/>
<path style="fill:#f5f3fe; stroke:none;" d="M89 143C96.1785 139.737 92.8794 135.79 96.0278 130.105C97.653 127.17 101.233 126.357 102.972 123.61C106.79 117.582 103.739 113.67 111 109L111 107C99.3179 103.017 100.848 111.79 96.9722 118.907C95.3468 121.891 91.8447 122.884 90.0278 125.609C87.3289 129.656 89 138.288 89 143z"/>
<path style="fill:#bba8f7; stroke:none;" d="M145.667 105.333L146.333 105.667L145.667 105.333M151.667 105.333L152.333 105.667L151.667 105.333M154.667 105.333L155.333 105.667L154.667 105.333M160 105L155 111L156 111L161 106L160 125L161 125C162.623 119.509 163.578 109.723 160 105z"/>
<path style="fill:#8d63f1; stroke:none;" d="M86 106L86 109L87 109L86 106z"/>
<path style="fill:#f5f3fe; stroke:none;" d="M89 106L89 121C96.8403 117.436 96.5461 109.711 89 106z"/>
<path style="fill:#698bec; stroke:none;" d="M95 106L96 107L95 106M97 106L98 107L97 106z"/>
<path style="fill:#bba8f7; stroke:none;" d="M147.667 106.333L148.333 106.667L147.667 106.333M153 106L154 107L153 106z"/>
<path style="fill:#f5f3fe; stroke:none;" d="M160 106C155.162 110.461 157.011 114.733 153.975 119.671C152.177 122.596 148.066 123.267 146.603 126.39C143.63 132.74 146.923 136.473 139 140L139 142C151.037 146.966 149.22 136.981 153.028 130.105C154.653 127.17 158.233 126.357 159.972 123.61C162.395 119.784 161.675 109.992 160 106z"/>
<path style="fill:#698bec; stroke:none;" d="M93 107L94 108L93 107M99 107L100 108L99 107z"/>
<path style="fill:#bba8f7; stroke:none;" d="M136 107L137 108L136 107M149 107L150 108L149 107z"/>
<path style="fill:#698bec; stroke:none;" d="M97 108L98 109L97 108z"/>
<path style="fill:#bba8f7; stroke:none;" d="M137.667 108.333L138.333 108.667L137.667 108.333M150.667 108.333L151.333 108.667L150.667 108.333z"/>
<path style="fill:#698bec; stroke:none;" d="M111 109L112 110L111 109z"/>
<path style="fill:#bba8f7; stroke:none;" d="M139.667 109.333L140.333 109.667L139.667 109.333M152 109L152 118L153 118L152 109M108 110C103.52 114.036 104 118.315 104 124L105 124C105.001 118.587 104.765 114.815 109 111L108 110z"/>
<path style="fill:#698bec; stroke:none;" d="M109.667 110.333L110.333 110.667L109.667 110.333z"/>
<path style="fill:#bba8f7; stroke:none;" d="M141 110L142 111L141 110z"/>
<path style="fill:#8d63f1; stroke:none;" d="M105 113L107 129L116 128L116 122C109.694 120.994 110.004 116.468 110 111L105 113z"/>
<path style="fill:#f5f3fe; stroke:none;" d="M111 111L111 120L116 120C119.235 114.133 130.765 114.133 134 120L139 120L139 111L111 111z"/>
<path style="fill:#bba8f7; stroke:none;" d="M143 111L144 112L143 111z"/>
<path style="fill:#698bec; stroke:none;" d="M106 112L107 113L106 112z"/>
<path style="fill:#bba8f7; stroke:none;" d="M144 112L145 113L144 112M155.333 112.667L155.667 113.333L155.333 112.667M145 113C145 116.644 143.783 121.096 148 122L148 121L145 113z"/>
<path style="fill:#698bec; stroke:none;" d="M105 116L106 117L105 116M117.333 118.667L117.667 119.333L117.333 118.667z"/>
<path style="fill:#bba8f7; stroke:none;" d="M151 118L152 119L151 118M149.667 119.333L150.333 119.667L149.667 119.333z"/>
<path style="fill:#698bec; stroke:none;" d="M110 120L111 121L110 120z"/>
<path style="fill:#bba8f7; stroke:none;" d="M148 120L149 121L148 120M153.667 120.333L154.333 120.667L153.667 120.333z"/>
<path style="fill:#698bec; stroke:none;" d="M111 121L111 122L124 122L111 121z"/>
<path style="fill:#bba8f7; stroke:none;" d="M152 121L153 122L152 121M116 124L134 123C129.802 121.239 119.154 120.391 116 124M150.667 122.333L151.333 122.667L150.667 122.333z"/>
<path style="fill:#698bec; stroke:none;" d="M115 123L115 127L116 127L115 123z"/>
<path style="fill:#f5f3fe; stroke:none;" d="M116 127L134 127L134 123C128.487 123 118.097 120.683 116 127z"/>
<path style="fill:#bba8f7; stroke:none;" d="M148.667 123.333L149.333 123.667L148.667 123.333M103 124L104 125L103 124M146.667 124.333L147.333 124.667L146.667 124.333M101 125L102 126L101 125M145 125L143 138C147.017 135.396 146.732 129.128 145 125M158 125L159 126L158 125M99.6667 126.333L100.333 126.667L99.6667 126.333M156.667 126.333L157.333 126.667L156.667 126.333M97.6667 127.333L98.3333 127.667L97.6667 127.333M100 129L100 130L104 128C104.028 135.901 106.758 138.964 114 142C114 138.989 132.396 139.002 136 140.167C138.213 140.882 139.764 143.094 142 144L142 143L139 142L141 140C139.524 133.804 140.63 129.251 133 129C129.902 134.619 122.645 133 117 133L117 129C110.007 129.23 110.005 132.821 110 139C105.676 135.437 105.019 132.448 105 127L100 129M116 127L116 128L134 128L116 127M153 129L156 127L153 129M155 132L161 128L161 143L156 139L155 139L162 144L162 127L155 132M96 128L97 129L96 128z"/>
<path style="fill:#f5f3fe; stroke:none;" d="M103 128C92.6122 135.429 101.699 139.665 106.397 146.185C108.541 149.161 107.236 152.643 108.603 155.787C110.543 160.247 118.711 163.43 123 165C122.908 157.292 118.542 158.15 115.028 152.61C113.231 149.779 114.687 146.185 113.397 143.213C112.077 140.173 108.418 139.171 106.318 136.787C104.068 134.233 104.253 130.951 103 128z"/>
<path style="fill:#698bec; stroke:none;" d="M132 128L133 129L132 128z"/>
<path style="fill:#f5f3fe; stroke:none;" d="M160 128C154.006 132.939 153.456 139.489 161 143L160 128z"/>
<path style="fill:#bba8f7; stroke:none;" d="M95 129L96 130L95 129M152 129L152 140L153 140L152 129M98.3333 130.667L98.6667 131.333L98.3333 130.667z"/>
<path style="fill:#f5f3fe; stroke:none;" d="M111 130L111 139L139 139L139 130L134 130C130.765 135.867 119.235 135.867 116 130L111 130z"/>
<path style="fill:#698bec; stroke:none;" d="M117 130L117 133L118 133L117 130M132 131L133 132L132 131z"/>
<path style="fill:#bba8f7; stroke:none;" d="M97 132L97 140L98 140L97 132M141.667 138.333L142.333 138.667L141.667 138.333M98 140L99 141L98 140z"/>
<path style="fill:#698bec; stroke:none;" d="M137 140L138 141L137 140z"/>
<path style="fill:#bba8f7; stroke:none;" d="M151 140L152 141L151 140M99.6667 141.333L100.333 141.667L99.6667 141.333M146 143L146 144L151 142L146 143M101.667 142.333L102.333 142.667L101.667 142.333z"/>
<path style="fill:#698bec; stroke:none;" d="M133 142L133 143L136 143L133 142M138 142L139 143L138 142M149 142L150 143L149 142M153 142L154 143L153 142z"/>
<path style="fill:#bba8f7; stroke:none;" d="M93 144L93 145L100 145L93 144M103 143L104 144L103 143M114 143L115 144L114 143z"/>
<path style="fill:#698bec; stroke:none;" d="M131 143L128 145L128 146L132 144L131 143z"/>
<path style="fill:#bba8f7; stroke:none;" d="M120 145L120 146L138 145L120 145z"/>
<path style="fill:#698bec; stroke:none;" d="M137 143L138 144L137 143M140 143L141 144L140 143z"/>
<path style="fill:#bba8f7; stroke:none;" d="M139 145L139 146L159 146L159 147L155 149L155 150L160 148C155.302 139.047 146.614 147.596 139 145z"/>
<path style="fill:#f5f3fe; stroke:none;" d="M91 146L91 147L104 154C103.903 145.847 98.5491 142.389 91 146z"/>
<path style="fill:#bba8f7; stroke:none;" d="M105 144L106 145L105 144M117.667 144.333L118.333 144.667L117.667 144.333z"/>
<path style="fill:#f5f3fe; stroke:none;" d="M117 145C117.452 158.823 126.934 151.398 134.576 151.287C137.97 151.238 140.563 154.416 144 154.501C148.999 154.624 155 149.638 159 147C153.35 141.712 150.142 147.307 144 147.188C140.767 147.126 138.246 144.495 135 144.357C128.011 144.061 124.531 146.696 117 145z"/>
<path style="fill:#698bec; stroke:none;" d="M138 144L139 145L138 144z"/>
<path style="fill:#bba8f7; stroke:none;" d="M142 144L142 145L146 145L142 144M84 145C81.2161 152.095 90.8631 150.23 86 145L88 149L83 149L84 145z"/>
<path style="fill:#f5f3fe; stroke:none;" d="M85 145L83 149L88 149L85 145z"/>
<path style="fill:#bba8f7; stroke:none;" d="M91 145L92 146L91 145M101 145L102 146L101 145M106 145L107 146L106 145z"/>
<path style="fill:#698bec; stroke:none;" d="M140 145L141 146L140 145z"/>
<path style="fill:#bba8f7; stroke:none;" d="M162.796 146.082C160.293 148.014 164.116 151.705 166.253 149.357C168.136 147.289 164.79 144.543 162.796 146.082M90 146L91 147L90 146M102.667 146.333L103.333 146.667L102.667 146.333M107 146L107 157L108 157L107 146z"/>
<path style="fill:#698bec; stroke:none;" d="M126 146L127 147L126 146z"/>
<path style="fill:#f5f3fe; stroke:none;" d="M162 147L162 149L167 149L167 147L162 147z"/>
<path style="fill:#bba8f7; stroke:none;" d="M91 147L92 148L91 147M104 147L103 155L104 147M92.6667 148.333L93.3333 148.667L92.6667 148.333M94 149L95 150L94 149M96 150L97 151L96 150M134 150L132 151L132 152L134 150M153 150L154 151L153 150z"/>
<path style="fill:#698bec; stroke:none;" d="M154 150L155 151L154 150z"/>
<path style="fill:#bba8f7; stroke:none;" d="M98 151L99 152L98 151M117 151L118 152L117 151z"/>
<path style="fill:#698bec; stroke:none;" d="M134 151L134 152L137 153L134 151z"/>
<path style="fill:#bba8f7; stroke:none;" d="M136 151L137 152L136 151M148 153L148 154L153 152L148 153M99.6667 152.333L100.333 152.667L99.6667 152.333M114 152L114 154L116 154L114 152M118.667 152.333L119.333 152.667L118.667 152.333M130.667 152.333L131.333 152.667L130.667 152.333M137 152L137 153L142 155L142 154L137 152z"/>
<path style="fill:#698bec; stroke:none;" d="M151 152L152 153L151 152z"/>
<path style="fill:#bba8f7; stroke:none;" d="M101 153L102 154L101 153M120 153L121 154L120 153M129 153L130 154L129 153z"/>
<path style="fill:#698bec; stroke:none;" d="M138 153L139 154L138 153M149 153L150 154L149 153z"/>
<path style="fill:#bba8f7; stroke:none;" d="M116.667 154.333L117.333 154.667L116.667 154.333M122 154L123 155L122 154M127 154L128 155L127 154M133 154L134 155L133 154z"/>
<path style="fill:#f5f3fe; stroke:none;" d="M127 165L140 158C133.425 151.522 127.092 157.314 127 165z"/>
<path style="fill:#bba8f7; stroke:none;" d="M135 154L135 155L138 156L135 154z"/>
<path style="fill:#698bec; stroke:none;" d="M137 154L138 155L137 154M140 154L141 155L140 154z"/>
<path style="fill:#bba8f7; stroke:none;" d="M146 154L143 155L143 156L147 155L146 154z"/>
<path style="fill:#698bec; stroke:none;" d="M147 154L148 155L147 154z"/>
<path style="fill:#bba8f7; stroke:none;" d="M118 155L119 156L118 155M124 155L124 156L127 156L124 155M131 155L132 156L131 155z"/>
<path style="fill:#698bec; stroke:none;" d="M138 155L139 156L138 155M142 155L143 156L142 155M146 155L147 156L146 155z"/>
<path style="fill:#bba8f7; stroke:none;" d="M120 156L121 157L120 156M129 156L130 157L129 156M139 156L140 157L139 156z"/>
<path style="fill:#698bec; stroke:none;" d="M143.667 156.333L144.333 156.667L143.667 156.333z"/>
<path style="fill:#bba8f7; stroke:none;" d="M108 157L109 158L108 157M121.667 157.333L122.333 157.667L121.667 157.333M127.667 157.333L128.333 157.667L127.667 157.333M140 157L141 158L140 157M110 158L111 159L110 158M123 158L122 166L123 158M126 158L128 166L126 158M139 158L140 159L139 158M111.667 159.333L112.333 159.667L111.667 159.333M137.667 159.333L138.333 159.667L137.667 159.333M113.667 160.333L114.333 160.667L113.667 160.333M136 160L137 161L136 160M115 161L116 162L115 161M134 161L135 162L134 161M116.667 162.333L117.333 162.667L116.667 162.333M132.667 162.333L133.333 162.667L132.667 162.333M118.667 163.333L119.333 163.667L118.667 163.333M130.667 163.333L131.333 163.667L130.667 163.333M120 164L121 165L120 164M129 164L130 165L129 164M123 168C122.142 173.851 127.858 173.851 127 168L126 168L126 173L124 173L123 168z"/>
<path style="fill:#f5f3fe; stroke:none;" d="M124 168L124 173L126 173L126 168L124 168z"/>
</svg>
